<svg xmlns="http://www.w3.org/2000/svg" version="1.1" xmlns:xlink="http://www.w3.org/1999/xlink" xmlns:svgjs="http://svgjs.dev/svgjs" width="1000" height="837" viewBox="0 0 1000 837"><g transform="matrix(1,0,0,1,0.5830661888959412,0.338866396761091)"><svg viewBox="0 0 295 247" data-background-color="#ff5858" preserveAspectRatio="xMidYMid meet" height="837" width="1000" xmlns="http://www.w3.org/2000/svg" xmlns:xlink="http://www.w3.org/1999/xlink"><g id="tight-bounds" transform="matrix(1,0,0,1,-0.17200445009817145,-0.09999999999999432)"><svg viewBox="0 0 295.3440089758224 247.2" height="247.2" width="295.3440089758224"><g><svg viewBox="0 0 395.52 331.0463088079904" height="247.2" width="295.3440089758224"><g transform="matrix(1,0,0,1,0,246.31477592208435)"><svg viewBox="0 0 395.52 84.73153288590602" height="84.73153288590602" width="395.52"><g id="textblocktransform"><svg viewBox="0 0 395.52 84.73153288590602" height="84.73153288590602" width="395.52" id="textblock"><g><svg viewBox="0 0 395.52 84.73153288590602" height="84.73153288590602" width="395.52"><g transform="matrix(1,0,0,1,0,0)"><svg width="395.52" viewBox="1.7000000476837158 -39 186.22000122070312 39.900001525878906" height="84.73153288590602" data-palette-color="#ffffff"><path d="M13.15 0Q12.75 0 12.48-0.25 12.2-0.5 12.2-0.85L12.2-0.85 12.2-7.4Q12.2-8 9.65-8.5 7.1-9 5.45-9L5.45-9Q5.35-9 5.13-8.25 4.9-7.5 4.8-7.15L4.8-7.15Q4.15-4.55 3.5-1.6L3.5-1.6 3.25-0.5Q3.15-0.1 2.75-0.1L2.75-0.1Q2.35-0.1 2.02-0.35 1.7-0.6 1.7-0.95L1.7-0.95 1.75-1.05 1.75-1.1 2.3-3.6Q2.9-5.95 3.35-8.2L3.35-8.2Q3.85-10.75 4.1-11.5L4.1-11.5Q4.5-13.15 5.7-19.75L5.7-19.75 6-21.4Q7.3-29.1 7.8-31.1L7.8-31.1Q8.05-32.3 8.7-34.65L8.7-34.65Q8.95-35.65 9.4-36.65L9.4-36.65Q9.85-37.5 10.15-37.5L10.15-37.5Q10.95-37.5 11.3-37L11.3-37Q11.55-36.55 12.08-32.05 12.6-27.55 13-22.95L13-22.95 13.65-14.65Q13.65-12.5 13.95-8.15L13.95-8.15Q14.25-3.75 14.25-1.6L14.25-1.6 14.25-1.4Q14.25-0.85 14.1-0.4L14.1-0.4Q13.9 0 13.15 0L13.15 0ZM11.15-9.65Q12.15-9.65 12.15-10.15L12.15-10.15Q12.15-13.25 11.8-18.63 11.45-24 11.05-28.1L11.05-28.1Q10.95-29.85 10.65-31.95L10.65-31.95 10.45-33.9Q10.45-33.85 10.35-34.45L10.35-34.45 10.25-35.05Q9.85-33.95 9.47-32 9.1-30.05 8.7-27.4L8.7-27.4Q7.5-19.95 6.65-16.2L6.65-16.2 6.2-14.5Q5.45-12 5.45-10.7L5.45-10.7 5.45-10.4Q7.65-9.7 10.5-9.7L10.5-9.7 10.8-9.7Q10.95-9.65 11.15-9.65L11.15-9.65ZM34 0.2Q33.6 0.2 33.42-0.1 33.25-0.4 33.1-1L33.1-1Q33.05-1.4 32.9-1.7L32.9-1.7 32.95-1.85Q32.55-4.2 31.25-7.6L31.25-7.6 30.35-10.2Q30.25-10.3 29.4-12.75L29.4-12.75 29-13.95Q24.5-27.85 23.35-29L23.35-29Q22.95-27.65 22.95-25.5L22.95-25.5Q22.95-24.35 23-23.5L23-23.5 23.05-21.55 23-20.35Q22.95-19.8 22.95-19.15L22.95-19.15Q22.95-18.05 23.05-17.25L23.05-17.25Q23.15-15.65 23.15-15.65L23.15-15.65 23-15.65Q23-7.3 23.35-6.45L23.35-6.45 23.35-1.95Q23.55-1.55 23.55-0.9L23.55-0.9Q23.55-0.5 23.27-0.2 23 0.1 22.6 0.1L22.6 0.1Q21.55 0.1 21.55-2.6L21.55-2.6 21.65-4.2Q21.75-4.95 21.75-5.85L21.75-5.85Q21.75-8.25 21.6-13.05L21.6-13.05Q21.45-17.85 21.45-20.25L21.45-20.25Q21.45-21.7 21.6-24.7L21.6-24.7Q21.75-27.65 21.75-29.1L21.75-29.1 21.75-29.75Q21.75-32.2 22.65-32.95L22.65-32.95 22.8-32.8 23.3-32.9Q23.5-32.85 23.75-32.6L23.75-32.6Q23.95-32.4 23.95-32.15L23.95-32.15 24.05-31.85Q24.05-31.75 24.07-31.68 24.1-31.6 24.1-31.6L24.1-31.6Q24.9-28.05 27.7-21.65L27.7-21.65Q30.55-14.9 31.25-12.7L31.25-12.7Q31.75-10.95 32.05-9.6L32.05-9.6Q33-5.35 34.3-3.05L34.3-3.05 34.4-3.2Q35.55-14.3 35.55-30.45L35.55-30.45 35.5-31.05Q35.45-31.3 35.45-31.7L35.45-31.7Q35.45-32.75 36.15-32.75L36.15-32.75Q36.6-32.75 36.92-32.3 37.25-31.85 37.25-31.3L37.25-31.3 37.25-27.95 37-27.55Q37-22.8 36.45-11.95 35.9-1.1 35.4-0.15L35.4-0.15 34.55 0.05 34.55 0.1 34.5 0.05 34 0.2ZM46.95 0Q45.8 0 45.6-0.5L45.6-0.5Q45.35-0.5 45.2-0.45L45.2-0.45 44.8-0.45Q43.7-0.45 43.4-0.95L43.4-0.95Q43.4-1.3 43.8-1.55L43.8-1.55 44.05-1.8 45.5-1.8 45.7-2 45.8-2.45 45.85-3.05Q45.85-6.1 45.7-8.5L45.7-8.5 45.6-10.35 45.5-14Q45.5-15.95 45.65-19.85L45.65-19.85 45.75-25.65Q45.75-29.45 45.5-31.45L45.5-31.45Q45.05-31.6 44-31.6L44-31.6 43.45-31.55Q43.15-31.5 42.8-31.5L42.8-31.5Q41.85-31.5 41.85-32.35L41.85-32.35Q41.85-32.55 42.3-32.75 42.75-32.95 43.05-32.95L43.05-32.95Q44.95-32.95 46.85-32.75L46.85-32.75Q48-32.7 49.15-32.3L49.15-32.3Q50.05-32 50.05-31.45L50.05-31.45Q50.05-31.35 49.9-31.05L49.9-31.05 48.75-30.95Q48.4-31.25 47.3-31.25L47.3-31.25 47.05-31.1Q47.2-30.65 47.2-28.45L47.2-28.45Q47.2-25.15 47.15-22.5L47.15-22.5 47.05-16.55Q47.05-14.3 47.25-11.1L47.25-11.1Q47.4-7.45 47.4-5.6L47.4-5.6 47.4-4.95Q47.35-4.6 47.35-4.05L47.35-4.05Q47.35-2.9 47.5-2.65L47.5-2.65 47.45-2.55Q47.45-2.05 48.55-2.05L48.55-2.05Q49-2.05 49.3-2.1L49.3-2.1 50.05-2.1Q51.5-2.1 51.5-1.4L51.5-1.4Q51.5-0.95 51.2-0.68 50.9-0.4 50.4-0.4L50.4-0.4Q49.95-0.4 49.6-0.5L49.6-0.5Q49.2-0.55 48.75-0.55L48.75-0.55Q48.45-0.55 47.85-0.3L47.85-0.3Q47.25 0 46.95 0L46.95 0ZM67.04 0.9Q65.84 0.9 64.19-3.6L64.19-3.6Q62.64-7.75 61.49-12.6 60.34-17.45 60.24-19.4L60.24-19.4 60.09-19.6 59.34-18Q58.79-16.95 58.52-16.28 58.24-15.6 57.99-14.6L57.99-14.6Q57.69-13.65 57.69-12.65L57.69-12.65Q57.69-11.65 57.59-10.85L57.59-10.85 57.49-9.05 57.49-2.65Q57.49-2.2 57.64-1.2L57.64-1.2Q57.79-0.3 57.79 0.2L57.79 0.2Q57.79 0.45 57.54 0.63 57.29 0.8 56.99 0.8L56.99 0.8Q56.34 0.8 56.12 0.6 55.89 0.4 55.89-0.25L55.89-0.25 55.89-9.65Q55.89-10.45 56.14-12.8L56.14-12.8Q56.39-15.15 56.39-15.95L56.39-15.95Q56.39-18.05 56.64-20.8L56.64-20.8Q56.84-23.6 56.84-25.6L56.84-25.6 56.84-32.55Q57.14-33.1 57.79-33.1L57.79-33.1Q58.19-33.1 58.47-32.83 58.74-32.55 58.74-32.15L58.74-32.15Q58.34-31.25 58.34-29.75L58.34-29.75 58.24-24.5Q58.14-22.1 58.14-19.2L58.14-19.2Q58.64-19.35 62.04-26.1L62.04-26.1Q65.44-32.8 65.79-32.8L65.79-32.8Q67.09-32.8 67.09-31.95L67.09-31.95Q63.89-27.2 61.79-22.7L61.79-22.7 61.74-21.1Q61.69-20.4 61.69-19.5L61.69-19.5Q61.69-17.3 63.39-11.25 65.09-5.2 66.29-2.85L66.29-2.85Q66.84-2.1 66.94-2L66.94-2Q67.44-1.3 67.67-0.83 67.89-0.35 67.89 0.15L67.89 0.15Q67.89 0.5 67.64 0.7 67.39 0.9 67.04 0.9L67.04 0.9ZM73.54 0.65Q72.64 0.65 72.54-0.4L72.54-0.4 72.54-1.05Q72.59-1.3 72.59-1.65L72.59-1.65 72.39-1.85Q72.79-2.9 72.79-3.9L72.79-3.9Q72.79-5.05 72.64-7.2L72.64-7.2 72.54-10.5Q72.54-13 72.69-18L72.69-18Q72.89-22.45 72.89-25.55L72.89-25.55 72.79-28.55Q72.69-29.9 72.69-31.55L72.69-31.55Q72.69-32.3 73.04-32.63 73.39-32.95 74.14-32.95L74.14-32.95Q74.64-32.95 74.94-32.65L74.94-32.65Q75.04-32.6 76.39-32.45L76.39-32.45Q77.64-32.3 78.54-32L78.54-32Q79.49-31.7 79.49-31.25L79.49-31.25Q79.49-30.75 78.54-30.25L78.54-30.25Q75.69-31.2 74.49-31.2L74.49-31.2 74.24-30.9Q74.29-30.45 74.29-28.75L74.29-28.75Q74.29-26.6 74.19-24.9L74.19-24.9Q74.14-23.15 74.14-21L74.14-21Q74.14-19.6 74.84-19.6L74.84-19.6 75.64-19.65Q76.04-19.7 76.49-19.7L76.49-19.7Q78.44-19.7 78.44-18.8L78.44-18.8Q78.44-18.25 78.19-17.88 77.94-17.5 77.44-17.5L77.44-17.5Q76.69-17.5 76.29-17.9L76.29-17.9 74.69-18.15 74.44-18.15 74.19-17.9 74.19-17.75Q74.29-16.9 74.29-13.8L74.29-13.8Q74.29-11.85 74.24-10.25L74.24-10.25 74.19-6.7Q74.19-4.75 74.34-2.7L74.34-2.7Q74.39-1.55 74.84-1.18 75.29-0.8 76.49-0.8L76.49-0.8 77.39-0.85Q77.84-0.9 78.39-0.9L78.39-0.9Q79.84-0.9 79.84-0.25L79.84-0.25Q79.84 0.65 77.64 0.65L77.64 0.65 73.54 0.65ZM89.24-0.3L88.69-0.7 88.64-2.55Q88.59-3.35 88.59-4.35L88.59-4.35Q88.59-4.85 88.64-5.2L88.64-5.2 88.69-6.1Q88.69-6.6 88.49-7.3L88.49-7.3Q88.49-10.65 87.99-19.75L87.99-19.75Q87.49-28.55 87.44-31.7L87.44-31.7Q84.34-31.7 83.29-31.85L83.29-31.85Q82.29-32.1 82.29-32.65L82.29-32.65Q82.54-33.2 83.24-33.2L83.24-33.2Q84.74-33.2 87.59-33L87.59-33Q90.19-32.75 91.94-32.75L91.94-32.75 92.99-32.75 94.04-32.8Q94.94-32.8 94.94-32.15L94.94-32.15Q94.94-31.85 94.61-31.68 94.29-31.5 93.84-31.5L93.84-31.5Q92.84-31.5 91.74-31.6L91.74-31.6 89.59-31.7Q89.39-31.7 89.39-31.55L89.39-31.55Q89.34-31.4 89.34-30.6L89.34-30.6Q89.34-25.75 89.94-15.9L89.94-15.9Q90.49-5.7 90.49-1.25L90.49-1.25Q90.49-0.9 90.06-0.6 89.64-0.3 89.24-0.3L89.24-0.3ZM119.68 0.8Q119.23 0.8 119.08 0.45L119.08 0.45Q119.03 0.15 117.88-3.75L117.88-3.75 116.13-9.85Q113.38-19.35 112.58-21.6L112.58-21.6 112.28-22.45Q112.23-22.35 112.11-22.15 111.98-21.95 111.68-21.5L111.68-21.5Q111.08-20.4 110.68-19.8L110.68-19.8 109.98-18.65 109.98-0.85Q109.98 0 109.83 0.33 109.68 0.65 109.18 0.65L109.18 0.65Q108.68 0.65 108.51 0.3 108.33-0.05 108.33-0.95L108.33-0.95 108.33-16.05Q108.33-19 108.48-25.65L108.48-25.65 108.58-35.25Q108.58-36.2 108.68-37L108.68-37Q108.83-37.6 109.23-37.6L109.23-37.6Q109.98-37.6 110.13-37.25L110.13-37.25Q110.33-36.9 110.33-35.45L110.33-35.45 110.23-27.15 110.13-21.1 110.18-21.1Q111.13-23.2 112.88-27.4L112.88-27.4 114.73-32.05Q117.53-39 118.28-39L118.28-39Q118.63-39 118.88-38.8 119.13-38.6 119.13-38.25L119.13-38.25Q118.98-37.3 118.33-36.25L118.33-36.25 117.83-35.35Q116.98-33.35 115.33-29.35L115.33-29.35Q113.33-24.5 113.18-24.25L113.18-24.25Q113.13-23.9 113.23-23.65L113.23-23.65Q114.23-21.1 115.48-17.35 116.73-13.6 117.53-10.85L117.53-10.85Q118.38-7.85 119.26-4.75 120.13-1.65 120.48-0.3L120.48-0.3Q120.58 0 120.58 0.05L120.58 0.05Q120.58 0.4 120.31 0.6 120.03 0.8 119.68 0.8L119.68 0.8ZM134.38 0.45Q133.63 0.45 133.43 0.28 133.23 0.1 133.13-0.65L133.13-0.65Q132.68-4.3 132.58-5.2L132.58-5.2 132.33-7.2Q131.23-7.45 129.83-7.45L129.83-7.45 128.03-7.55Q126.83-7.7 126.28-7.7L126.28-7.7Q125.98-7.7 125.93-7.45L125.93-7.45Q125.93-7.3 125.88-7.3L125.88-7.3 125.78-6.3Q125.73-5.4 125.23-2.7L125.23-2.7Q124.98-1.35 124.63-0.6L124.63-0.6Q124.23 0.25 123.88 0.25L123.88 0.25Q123.58 0.25 123.23-0.03 122.88-0.3 122.88-0.6L122.88-0.6 122.93-0.75 122.98-0.9Q123.88-4.45 124.48-7.95L124.48-7.95 125.08-11.05 125.68-14.85Q125.68-14.85 126.23-18.15L126.23-18.15Q126.48-19.5 127.13-22.5L127.13-22.5Q127.83-25.9 127.98-27.15L127.98-27.15Q128.03-27.3 128.18-29L128.18-29Q128.38-30.9 128.53-31.8L128.53-31.8Q128.68-33.1 128.83-33.3L128.83-33.3 129.18-33.3Q129.33-33.25 129.53-33.25L129.53-33.25Q130.13-33.25 130.43-33.55L130.43-33.55Q130.78-33.55 131.06-33.33 131.33-33.1 131.33-32.8L131.33-32.8Q131.33-30.4 131.68-27.3L131.68-27.3Q131.88-25.7 131.98-24.65L131.98-24.65Q132.53-18.2 134.78-0.45L134.78-0.45 134.78-0.3Q134.78 0.2 134.38 0.45L134.38 0.45ZM131.58-8.55L132.08-8.55Q131.58-15.75 130.18-29.8L130.18-29.8 127.48-16.45Q126.33-10.7 126.33-9.2L126.33-9.2Q126.33-8.95 128.23-8.75 130.13-8.55 131.58-8.55L131.58-8.55ZM148.53 0.85L147.83 0.6Q147.23-0.05 146.53-2.85 145.83-5.65 145.23-9.15L145.23-9.15Q144.83-12 144.08-14.8L144.08-14.8Q143.48-17.3 142.93-17.3L142.93-17.3 142.78-17.3Q141.68-17.3 141.68-16.6L141.68-16.6Q141.68-13 142.08-5.65L142.08-5.65Q142.28-1.15 142.53-0.4L142.53-0.4 142.13 0.45 141.43 0.45 141.03 0.05Q140.23-23.05 140.23-31.45L140.23-31.45Q140.23-32 140.3-32.35 140.38-32.7 140.63-33L140.63-33Q140.83-33.35 141.33-33.35L141.33-33.35Q143.88-33.35 145.43-32.1 146.98-30.85 146.98-28.5L146.98-28.5 146.98-24.85Q146.98-23.9 146.35-22.3 145.73-20.7 144.98-19.35L144.98-19.35 144.33-18.1Q144.88-15.55 146.5-8.93 148.13-2.3 148.28-1.9L148.28-1.9Q148.33-1.85 148.4-1.65 148.48-1.45 148.73-1.05L148.73-1.05Q149.08-0.35 149.08 0.15L149.08 0.15Q149.08 0.85 148.53 0.85L148.53 0.85ZM141.93-18.55Q142.88-18.55 143.63-19.5 144.38-20.45 144.83-21.95L144.83-21.95Q145.63-25 145.63-26.8L145.63-26.8Q145.63-27.95 145.5-28.7 145.38-29.45 145.08-30.3L145.08-30.3Q144.48-32.05 142.23-32.05L142.23-32.05Q141.98-32.05 141.83-31.63 141.68-31.2 141.68-30.75L141.68-30.75Q141.68-27.4 141.78-24.7L141.78-24.7Q141.83-22 141.83-18.65L141.83-18.65 141.93-18.55ZM167.43 0.2Q167.03 0.2 166.85-0.1 166.68-0.4 166.53-1L166.53-1Q166.48-1.4 166.33-1.7L166.33-1.7 166.38-1.85Q165.98-4.2 164.68-7.6L164.68-7.6 163.78-10.2Q163.68-10.3 162.83-12.75L162.83-12.75 162.43-13.95Q157.93-27.85 156.78-29L156.78-29Q156.38-27.65 156.38-25.5L156.38-25.5Q156.38-24.35 156.43-23.5L156.43-23.5 156.48-21.55 156.43-20.35Q156.38-19.8 156.38-19.15L156.38-19.15Q156.38-18.05 156.48-17.25L156.48-17.25Q156.58-15.65 156.58-15.65L156.58-15.65 156.43-15.65Q156.43-7.3 156.78-6.45L156.78-6.45 156.78-1.95Q156.98-1.55 156.98-0.9L156.98-0.9Q156.98-0.5 156.7-0.2 156.43 0.1 156.03 0.1L156.03 0.1Q154.98 0.1 154.98-2.6L154.98-2.6 155.08-4.2Q155.18-4.95 155.18-5.85L155.18-5.85Q155.18-8.25 155.03-13.05L155.03-13.05Q154.88-17.85 154.88-20.25L154.88-20.25Q154.88-21.7 155.03-24.7L155.03-24.7Q155.18-27.65 155.18-29.1L155.18-29.1 155.18-29.75Q155.18-32.2 156.08-32.95L156.08-32.95 156.23-32.8 156.73-32.9Q156.93-32.85 157.18-32.6L157.18-32.6Q157.38-32.4 157.38-32.15L157.38-32.15 157.48-31.85Q157.48-31.75 157.5-31.68 157.53-31.6 157.53-31.6L157.53-31.6Q158.33-28.05 161.13-21.65L161.13-21.65Q163.98-14.9 164.68-12.7L164.68-12.7Q165.18-10.95 165.48-9.6L165.48-9.6Q166.43-5.35 167.73-3.05L167.73-3.05 167.83-3.2Q168.98-14.3 168.98-30.45L168.98-30.45 168.93-31.05Q168.88-31.3 168.88-31.7L168.88-31.7Q168.88-32.75 169.58-32.75L169.58-32.75Q170.03-32.75 170.35-32.3 170.68-31.85 170.68-31.3L170.68-31.3 170.68-27.95 170.43-27.55Q170.43-22.8 169.88-11.95 169.33-1.1 168.83-0.15L168.83-0.15 167.98 0.05 167.98 0.1 167.93 0.05 167.43 0.2ZM187.52 0.45Q186.77 0.45 186.57 0.28 186.37 0.1 186.27-0.65L186.27-0.65Q185.82-4.3 185.72-5.2L185.72-5.2 185.47-7.2Q184.37-7.45 182.97-7.45L182.97-7.45 181.17-7.55Q179.97-7.7 179.42-7.7L179.42-7.7Q179.12-7.7 179.07-7.45L179.07-7.45Q179.07-7.3 179.02-7.3L179.02-7.3 178.92-6.3Q178.87-5.4 178.37-2.7L178.37-2.7Q178.12-1.35 177.77-0.6L177.77-0.6Q177.37 0.25 177.02 0.25L177.02 0.25Q176.72 0.25 176.37-0.03 176.02-0.3 176.02-0.6L176.02-0.6 176.07-0.75 176.12-0.9Q177.02-4.45 177.62-7.95L177.62-7.95 178.22-11.05 178.82-14.85Q178.82-14.85 179.37-18.15L179.37-18.15Q179.62-19.5 180.27-22.5L180.27-22.5Q180.97-25.9 181.12-27.15L181.12-27.15Q181.17-27.3 181.32-29L181.32-29Q181.52-30.9 181.67-31.8L181.67-31.8Q181.82-33.1 181.97-33.3L181.97-33.3 182.32-33.3Q182.47-33.25 182.67-33.25L182.67-33.25Q183.27-33.25 183.57-33.55L183.57-33.55Q183.92-33.55 184.2-33.33 184.47-33.1 184.47-32.8L184.47-32.8Q184.47-30.4 184.82-27.3L184.82-27.3Q185.02-25.7 185.12-24.65L185.12-24.65Q185.67-18.2 187.92-0.45L187.92-0.45 187.92-0.3Q187.92 0.2 187.52 0.45L187.52 0.45ZM184.72-8.55L185.22-8.55Q184.72-15.75 183.32-29.8L183.32-29.8 180.62-16.45Q179.47-10.7 179.47-9.2L179.47-9.2Q179.47-8.95 181.37-8.75 183.27-8.55 184.72-8.55L184.72-8.55Z" opacity="1" transform="matrix(1,0,0,1,0,0)" fill="#ffffff" class="wordmark-text-0" data-fill-palette-color="primary" id="text-0"></path></svg></g></svg></g></svg></g></svg></g><g transform="matrix(1,0,0,1,94.60569339653097,0)"><svg viewBox="0 0 206.30861320693805 206.30861320693805" height="206.30861320693805" width="206.30861320693805"><g><svg></svg></g><g id="icon-0"><svg viewBox="0 0 206.30861320693805 206.30861320693805" height="206.30861320693805" width="206.30861320693805"><g><path d="M0 103.154c0-56.971 46.184-103.154 103.154-103.154 56.971 0 103.154 46.184 103.155 103.154 0 56.971-46.184 103.154-103.155 103.155-56.971 0-103.154-46.184-103.154-103.155zM103.154 198.667c52.75 0 95.513-42.763 95.513-95.513 0-52.75-42.763-95.513-95.513-95.513-52.75 0-95.513 42.763-95.513 95.513 0 52.75 42.763 95.513 95.513 95.513z" data-fill-palette-color="accent" fill="#ffffff" stroke="transparent"></path><ellipse rx="102.12276353743434" ry="102.12276353743434" cx="103.15430660346902" cy="103.15430660346902" fill="#ffffff" stroke="transparent" stroke-width="0" fill-opacity="1" data-fill-palette-color="accent"></ellipse></g><g transform="matrix(1,0,0,1,43.45909923432983,51.84326925148498)"><svg viewBox="0 0 119.3904147382784 102.62207470396808" height="102.62207470396808" width="119.3904147382784"><g><svg xmlns="http://www.w3.org/2000/svg" xmlns:xlink="http://www.w3.org/1999/xlink" version="1.1" x="0" y="0" viewBox="6.8470778465271 16.309406280517578 88.2910385131836 75.89059448242188" style="enable-background:new 0 0 100 100;" xml:space="preserve" height="102.62207470396808" width="119.3904147382784" class="icon-s-0" data-fill-palette-color="quaternary" id="s-0"><path d="M21.1 92.2c-2.7 0-5.4-0.8-7.9-2.4C8 86.3 5.7 80.2 7.4 74.2l11.5-41.9c1.5-5.6 6.3-9.7 12.1-10.4l48.3-5.5c6.5-0.7 12.3 2.7 14.7 8.7 2.5 6 0.8 12.5-4.3 16.6L29.9 89C27.3 91.1 24.2 92.2 21.1 92.2zM79.6 19.4l-48.3 5.5c-4.6 0.5-8.3 3.7-9.5 8.2L10.3 74.9c-1.6 5.8 1.4 10.1 4.6 12.3 3.3 2.2 8.4 3.2 13.1-0.6l59.8-47.4c4.9-3.9 4.9-9.5 3.4-13.1C89.7 22.6 85.8 18.6 79.6 19.4L79.6 19.4z" fill="#ff5858" data-fill-palette-color="quaternary"></path></svg></g></svg></g></svg></g></svg></g><g></g></svg></g><defs></defs></svg><rect width="295.3440089758224" height="247.2" fill="none" stroke="none" visibility="hidden"></rect></g></svg></g></svg>