<svg xmlns="http://www.w3.org/2000/svg" version="1.1" xmlns:xlink="http://www.w3.org/1999/xlink" xmlns:svgjs="http://svgjs.dev/svgjs" width="1000" height="1000" viewBox="0 0 1000 1000"><rect width="1000" height="1000" fill="#000000"></rect><g transform="matrix(0.39615166949632147,0,0,0.39615166949632147,301.62441578955713,150.21572892378606)"><svg viewBox="0 0 185 327" data-background-color="#ffffff" preserveAspectRatio="xMidYMid meet" height="1767" width="1000" xmlns="http://www.w3.org/2000/svg" xmlns:xlink="http://www.w3.org/1999/xlink"><g id="tight-bounds" transform="matrix(1,0,0,1,0.13998085781815917,-0.10076863318280971)"><svg viewBox="0 0 184.71988534771708 327.2" height="327.2" width="184.71988534771708"><g><svg viewBox="0 0 395.52000000000004 700.596710291318" height="327.2" width="184.71988534771708"><g transform="matrix(1,0,0,1,0,433.2429787908517)"><svg viewBox="0 0 395.52000000000004 267.3537315004664" height="267.3537315004664" width="395.52000000000004"><g id="textblocktransform"><svg viewBox="0 0 395.52000000000004 267.3537315004664" height="267.3537315004664" width="395.52000000000004" id="textblock"><g><svg viewBox="0 0 395.52000000000004 267.3537315004664" height="267.3537315004664" width="395.52000000000004"><g transform="matrix(1,0,0,1,0,0)"><svg width="395.52000000000004" viewBox="30.271787643432617 -26.66529083251953 46.394561767578125 31.36065673828125" height="267.3537315004664" data-palette-color="#d12d36"><path d="M36.954-2.66l-2.808-0.266-2.921-0.106c-0.658-0.055-0.975-0.219-0.952-0.492v0c0.027-0.319 0.214-0.52 0.563-0.605v0c0.747-0.211 1.429-0.763 2.046-1.654 0.624-0.891 2.225-3.609 4.802-8.155 2.578-4.546 4.866-8.551 6.864-12.016v0c0.181-0.326 0.339-0.53 0.474-0.612 0.134-0.082 0.321-0.113 0.559-0.093 0.233 0.02 0.378 0.079 0.437 0.177 0.065 0.099 0.166 0.415 0.301 0.949 0.136 0.533 0.242 0.94 0.319 1.221 0.084 0.275 0.213 0.727 0.387 1.357 0.174 0.63 0.456 1.577 0.844 2.841 0.396 1.258 1.307 4.021 2.733 8.289 1.426 4.275 2.252 6.7 2.478 7.274 0.219 0.574 0.551 1.08 0.996 1.519 0.439 0.432 0.833 0.679 1.182 0.742 0.343 0.062 0.63 0.143 0.862 0.243 0.232 0.1 0.337 0.286 0.314 0.559v0c-0.029 0.339-0.348 0.482-0.959 0.431v0l-3.032-0.467-3.16-0.126c-0.698-0.059-1.14-0.123-1.329-0.192-0.188-0.076-0.274-0.204-0.259-0.383 0.015-0.179 0.117-0.315 0.306-0.406 0.188-0.085 0.386-0.135 0.594-0.151 0.202-0.016 0.403-0.103 0.604-0.26 0.193-0.151 0.307-0.426 0.341-0.824 0.033-0.392-0.168-1.379-0.603-2.961-0.435-1.582-0.815-2.752-1.14-3.508v0c-0.167-0.402-0.612-0.634-1.336-0.695v0l-4.101-0.276-1.804-0.152c-1.016-0.086-1.659-0.083-1.927 0.008-0.269 0.091-0.501 0.309-0.698 0.654-0.204 0.351-0.489 0.835-0.855 1.453-0.373 0.611-0.626 1.038-0.76 1.281-0.134 0.236-0.296 0.54-0.489 0.912v0c-0.349 0.653-0.543 1.205-0.581 1.657-0.038 0.452 0.061 0.825 0.297 1.119 0.237 0.288 0.512 0.468 0.827 0.541v0c0.831 0.137 1.232 0.388 1.201 0.754v0c-0.013 0.159-0.06 0.276-0.14 0.349-0.073 0.067-0.232 0.091-0.477 0.07zM43.935-21.54c-0.206-0.017-0.955 1.174-2.248 3.574-1.293 2.406-1.952 3.746-1.975 4.018-0.022 0.266 0.066 0.444 0.266 0.535 0.194 0.083 0.663 0.156 1.407 0.219v0l1.056 0.089 3.222 0.231c0.877 0.074 1.329-0.052 1.357-0.377 0.027-0.326-0.405-1.784-1.297-4.375-0.899-2.585-1.495-3.889-1.788-3.914zM53.676-10.318l1.509-4.293 1.161-3.482 0.52-1.481c0.382-1.088 0.625-1.89 0.729-2.405 0.11-0.513-0.025-0.995-0.404-1.445-0.387-0.447-0.822-0.766-1.306-0.958-0.482-0.198-0.673-0.438-0.573-0.721 0.102-0.289 0.451-0.329 1.048-0.119v0l3.6 1.34 2.778 0.902c0.365 0.128 0.499 0.331 0.401 0.608v0c-0.044 0.126-0.244 0.201-0.598 0.224-0.352 0.017-0.606 0.034-0.76 0.051v0c-0.795 0.152-1.584 1.34-2.367 3.567v0l-1.852 4.967c-0.157 0.447-0.151 0.7 0.019 0.759 0.17 0.06 1.258-0.272 3.265-0.994 2.006-0.722 4.041-1.555 6.103-2.497 2.063-0.943 3.177-1.65 3.343-2.121v0c0.091-0.258 0.046-0.472-0.135-0.642-0.178-0.176-0.316-0.298-0.412-0.367-0.096-0.069-0.236-0.154-0.419-0.253-0.178-0.098-0.285-0.164-0.323-0.198v0c-0.224-0.128-0.292-0.315-0.206-0.56 0.086-0.245 0.302-0.307 0.649-0.186v0l0.791 0.31 1.902 0.743 4.005 1.302c0.428 0.15 0.593 0.364 0.495 0.64v0c-0.053 0.151-0.156 0.242-0.308 0.274-0.156 0.023-0.433 0.025-0.828 0.005-0.402-0.021-0.708-0.026-0.917-0.015-0.209 0.011-0.89 0.15-2.044 0.416v0c-0.235 0.066-1.592 0.568-4.07 1.505-2.486 0.942-5.098 1.928-7.834 2.96v0l-0.509 0.33c-0.038 0.107 0.143 0.577 0.544 1.41 0.404 0.842 1.349 2.796 2.836 5.862 1.493 3.069 2.547 5.128 3.16 6.178 0.622 1.045 1.266 1.745 1.933 2.1 0.667 0.355 1.014 0.632 1.043 0.833v0c0.003 0.051-0.019 0.145-0.068 0.283-0.049 0.138-0.172 0.198-0.37 0.178-0.198-0.02-0.734-0.184-1.608-0.492v0l-3.113-1.094c-0.34-0.119-0.558-0.313-0.655-0.58-0.099-0.261-0.207-0.507-0.323-0.739v0c-0.463-1.195-0.834-2.081-1.111-2.659v0c-2.919-6.192-4.46-9.426-4.624-9.702v0c-0.173-0.273-0.344-0.439-0.514-0.499v0c-0.296-0.104-0.545 0.133-0.748 0.712v0l-0.033 0.094-0.231 0.746-0.574 1.632c-0.986 2.805-1.407 4.586-1.263 5.344 0.137 0.755 0.722 1.314 1.753 1.676v0l0.245 0.118c0.151 0.053 0.285 0.143 0.404 0.269 0.124 0.129 0.157 0.278 0.097 0.447v0c-0.106 0.302-0.426 0.359-0.961 0.171v0l-3.001-1.203-3.585-1.08c-0.767-0.27-1.11-0.521-1.028-0.753v0l0.046-0.132c0.051-0.145 0.186-0.217 0.405-0.218v0c0.853 0.088 1.448 0.053 1.786-0.104 0.332-0.159 0.725-0.766 1.181-1.822 0.449-1.057 1.091-2.772 1.924-5.142z" opacity="1" transform="matrix(1,0,0,1,0,0)" fill="#ffffff" class="wordmark-text-0" data-fill-palette-color="primary" id="text-0"></path></svg></g></svg></g></svg></g></svg></g><g transform="matrix(1,0,0,1,75.54432000000001,0)"><svg viewBox="0 0 244.43136 320.971076808575" height="320.971076808575" width="244.43136"><g><svg xmlns="http://www.w3.org/2000/svg" xmlns:xlink="http://www.w3.org/1999/xlink" version="1.1" x="0" y="0" viewBox="18.083999633789062 8.08986759185791 63.831382751464844 83.81914520263672" enable-background="new 0 0 100 100" xml:space="preserve" height="320.971076808575" width="244.43136" class="icon-icon-0" data-fill-palette-color="accent" id="icon-0"><g fill="#d12d36" data-fill-palette-color="accent"><path fill="#ffffff" d="M75.831 81.262c-0.461 4.555-4.121 7.827-8.179 7.309l-34.53-4.418c-4.055-0.521-6.968-4.632-6.507-9.187l6.035-59.515c0.464-4.555 4.123-7.826 8.182-7.307l34.529 4.417c4.057 0.52 6.969 4.632 6.506 9.187L75.831 81.262z" data-fill-palette-color="accent"></path><path fill="#ffffff" d="M28.725 87.08c-4.055-0.519-6.969-4.632-6.508-9.187l6.036-59.514c0.108-1.073 0.401-2.072 0.829-2.969h-3.607c-4.083 0-7.391 3.716-7.391 8.301v59.896c0 4.586 3.308 8.302 7.391 8.302h34.754c0.866 0 1.693-0.177 2.467-0.484L28.725 87.08z" data-fill-palette-color="accent"></path></g></svg></g></svg></g><g></g></svg></g><defs></defs></svg><rect width="184.71988534771708" height="327.2" fill="none" stroke="none" visibility="hidden"></rect></g></svg></g></svg>